<?xml version="1.0" encoding="UTF-8"?>
<!DOCTYPE svg PUBLIC "-//W3C//DTD SVG 1.1//EN" "http://www.w3.org/Graphics/SVG/1.1/DTD/svg11.dtd">
<svg xmlns="http://www.w3.org/2000/svg" version="1.1" width="1024px" height="1024px" style="shape-rendering:geometricPrecision; text-rendering:geometricPrecision; image-rendering:optimizeQuality; fill-rule:evenodd; clip-rule:evenodd" xmlns:xlink="http://www.w3.org/1999/xlink">
<g><path style="opacity:1" fill="#000000" d="M 575.5,127.5 C 532.833,127.5 490.167,127.5 447.5,127.5C 447.5,106.167 447.5,84.8333 447.5,63.5C 490.167,63.5 532.833,63.5 575.5,63.5C 575.5,84.8333 575.5,106.167 575.5,127.5 Z"/></g>
<g><path style="opacity:1" fill="#000000" d="M 447.5,127.5 C 447.5,170.167 447.5,212.833 447.5,255.5C 426.167,255.5 404.833,255.5 383.5,255.5C 383.5,212.833 383.5,170.167 383.5,127.5C 404.833,127.5 426.167,127.5 447.5,127.5 Z"/></g>
<g><path style="opacity:1" fill="#122832" d="M 447.5,127.5 C 490.167,127.5 532.833,127.5 575.5,127.5C 575.5,148.833 575.5,170.167 575.5,191.5C 554.167,191.5 532.833,191.5 511.5,191.5C 511.5,212.833 511.5,234.167 511.5,255.5C 490.167,255.5 468.833,255.5 447.5,255.5C 447.5,212.833 447.5,170.167 447.5,127.5 Z"/></g>
<g><path style="opacity:1" fill="#000000" d="M 575.5,127.5 C 596.833,127.5 618.167,127.5 639.5,127.5C 639.5,170.167 639.5,212.833 639.5,255.5C 618.167,255.5 596.833,255.5 575.5,255.5C 575.5,234.167 575.5,212.833 575.5,191.5C 575.5,170.167 575.5,148.833 575.5,127.5 Z"/></g>
<g><path style="opacity:1" fill="#0c1b22" d="M 575.5,191.5 C 575.5,212.833 575.5,234.167 575.5,255.5C 554.167,255.5 532.833,255.5 511.5,255.5C 511.5,234.167 511.5,212.833 511.5,191.5C 532.833,191.5 554.167,191.5 575.5,191.5 Z"/></g>
<g><path style="opacity:1" fill="#000000" d="M 383.5,255.5 C 383.5,298.167 383.5,340.833 383.5,383.5C 340.833,383.5 298.167,383.5 255.5,383.5C 234.167,383.5 212.833,383.5 191.5,383.5C 170.167,383.5 148.833,383.5 127.5,383.5C 127.5,362.167 127.5,340.833 127.5,319.5C 191.5,319.5 255.5,319.5 319.5,319.5C 319.5,298.167 319.5,276.833 319.5,255.5C 340.833,255.5 362.167,255.5 383.5,255.5 Z"/></g>
<g><path style="opacity:1" fill="#122832" d="M 383.5,255.5 C 404.833,255.5 426.167,255.5 447.5,255.5C 447.5,298.167 447.5,340.833 447.5,383.5C 426.167,383.5 404.833,383.5 383.5,383.5C 383.5,340.833 383.5,298.167 383.5,255.5 Z"/></g>
<g><path style="opacity:1" fill="#0c1b22" d="M 447.5,255.5 C 468.833,255.5 490.167,255.5 511.5,255.5C 511.5,298.167 511.5,340.833 511.5,383.5C 511.5,426.167 511.5,468.833 511.5,511.5C 490.167,511.5 468.833,511.5 447.5,511.5C 447.5,532.833 447.5,554.167 447.5,575.5C 426.167,575.5 404.833,575.5 383.5,575.5C 383.5,554.167 383.5,532.833 383.5,511.5C 362.167,511.5 340.833,511.5 319.5,511.5C 319.5,490.167 319.5,468.833 319.5,447.5C 340.833,447.5 362.167,447.5 383.5,447.5C 383.5,426.167 383.5,404.833 383.5,383.5C 404.833,383.5 426.167,383.5 447.5,383.5C 447.5,340.833 447.5,298.167 447.5,255.5 Z"/></g>
<g><path style="opacity:1" fill="#2f3642" d="M 511.5,255.5 C 532.833,255.5 554.167,255.5 575.5,255.5C 596.833,255.5 618.167,255.5 639.5,255.5C 639.5,298.167 639.5,340.833 639.5,383.5C 596.833,383.5 554.167,383.5 511.5,383.5C 511.5,340.833 511.5,298.167 511.5,255.5 Z"/></g>
<g><path style="opacity:1" fill="#000000" d="M 639.5,255.5 C 660.833,255.5 682.167,255.5 703.5,255.5C 703.5,276.833 703.5,298.167 703.5,319.5C 767.5,319.5 831.5,319.5 895.5,319.5C 895.5,340.833 895.5,362.167 895.5,383.5C 852.833,383.5 810.167,383.5 767.5,383.5C 746.167,383.5 724.833,383.5 703.5,383.5C 682.167,383.5 660.833,383.5 639.5,383.5C 639.5,340.833 639.5,298.167 639.5,255.5 Z"/></g>
<g><path style="opacity:1" fill="#000000" d="M 127.5,383.5 C 127.5,447.5 127.5,511.5 127.5,575.5C 106.167,575.5 84.8333,575.5 63.5,575.5C 63.5,511.5 63.5,447.5 63.5,383.5C 84.8333,383.5 106.167,383.5 127.5,383.5 Z"/></g>
<g><path style="opacity:1" fill="#e5fffe" d="M 127.5,383.5 C 148.833,383.5 170.167,383.5 191.5,383.5C 191.5,404.833 191.5,426.167 191.5,447.5C 212.833,447.5 234.167,447.5 255.5,447.5C 255.5,468.833 255.5,490.167 255.5,511.5C 276.833,511.5 298.167,511.5 319.5,511.5C 340.833,511.5 362.167,511.5 383.5,511.5C 383.5,532.833 383.5,554.167 383.5,575.5C 404.833,575.5 426.167,575.5 447.5,575.5C 447.5,596.833 447.5,618.167 447.5,639.5C 404.833,639.5 362.167,639.5 319.5,639.5C 319.5,660.833 319.5,682.167 319.5,703.5C 298.167,703.5 276.833,703.5 255.5,703.5C 255.5,660.833 255.5,618.167 255.5,575.5C 212.833,575.5 170.167,575.5 127.5,575.5C 127.5,511.5 127.5,447.5 127.5,383.5 Z"/></g>
<g><path style="opacity:1" fill="#1b7890" d="M 191.5,383.5 C 212.833,383.5 234.167,383.5 255.5,383.5C 255.5,404.833 255.5,426.167 255.5,447.5C 234.167,447.5 212.833,447.5 191.5,447.5C 191.5,426.167 191.5,404.833 191.5,383.5 Z"/></g>
<g><path style="opacity:1" fill="#68aed4" d="M 255.5,383.5 C 298.167,383.5 340.833,383.5 383.5,383.5C 383.5,404.833 383.5,426.167 383.5,447.5C 362.167,447.5 340.833,447.5 319.5,447.5C 298.167,447.5 276.833,447.5 255.5,447.5C 255.5,426.167 255.5,404.833 255.5,383.5 Z"/></g>
<g><path style="opacity:1" fill="#68aed4" d="M 511.5,383.5 C 554.167,383.5 596.833,383.5 639.5,383.5C 660.833,383.5 682.167,383.5 703.5,383.5C 703.5,404.833 703.5,426.167 703.5,447.5C 682.167,447.5 660.833,447.5 639.5,447.5C 639.5,468.833 639.5,490.167 639.5,511.5C 618.167,511.5 596.833,511.5 575.5,511.5C 554.167,511.5 532.833,511.5 511.5,511.5C 511.5,468.833 511.5,426.167 511.5,383.5 Z"/></g>
<g><path style="opacity:1" fill="#1b7890" d="M 703.5,383.5 C 724.833,383.5 746.167,383.5 767.5,383.5C 767.5,404.833 767.5,426.167 767.5,447.5C 746.167,447.5 724.833,447.5 703.5,447.5C 703.5,426.167 703.5,404.833 703.5,383.5 Z"/></g>
<g><path style="opacity:1" fill="#e5fffe" d="M 767.5,383.5 C 810.167,383.5 852.833,383.5 895.5,383.5C 895.5,404.833 895.5,426.167 895.5,447.5C 874.167,447.5 852.833,447.5 831.5,447.5C 831.5,468.833 831.5,490.167 831.5,511.5C 810.167,511.5 788.833,511.5 767.5,511.5C 767.5,532.833 767.5,554.167 767.5,575.5C 767.5,596.833 767.5,618.167 767.5,639.5C 746.167,639.5 724.833,639.5 703.5,639.5C 703.5,660.833 703.5,682.167 703.5,703.5C 682.167,703.5 660.833,703.5 639.5,703.5C 639.5,724.833 639.5,746.167 639.5,767.5C 618.167,767.5 596.833,767.5 575.5,767.5C 575.5,788.833 575.5,810.167 575.5,831.5C 511.5,831.5 447.5,831.5 383.5,831.5C 340.833,831.5 298.167,831.5 255.5,831.5C 255.5,810.167 255.5,788.833 255.5,767.5C 276.833,767.5 298.167,767.5 319.5,767.5C 319.5,746.167 319.5,724.833 319.5,703.5C 362.167,703.5 404.833,703.5 447.5,703.5C 447.5,682.167 447.5,660.833 447.5,639.5C 490.167,639.5 532.833,639.5 575.5,639.5C 575.5,618.167 575.5,596.833 575.5,575.5C 596.833,575.5 618.167,575.5 639.5,575.5C 639.5,554.167 639.5,532.833 639.5,511.5C 660.833,511.5 682.167,511.5 703.5,511.5C 703.5,490.167 703.5,468.833 703.5,447.5C 724.833,447.5 746.167,447.5 767.5,447.5C 767.5,426.167 767.5,404.833 767.5,383.5 Z"/></g>
<g><path style="opacity:1" fill="#000000" d="M 895.5,383.5 C 916.833,383.5 938.167,383.5 959.5,383.5C 959.5,447.5 959.5,511.5 959.5,575.5C 938.167,575.5 916.833,575.5 895.5,575.5C 895.5,532.833 895.5,490.167 895.5,447.5C 895.5,426.167 895.5,404.833 895.5,383.5 Z"/></g>
<g><path style="opacity:1" fill="#1b7890" d="M 255.5,447.5 C 276.833,447.5 298.167,447.5 319.5,447.5C 319.5,468.833 319.5,490.167 319.5,511.5C 298.167,511.5 276.833,511.5 255.5,511.5C 255.5,490.167 255.5,468.833 255.5,447.5 Z"/></g>
<g><path style="opacity:1" fill="#1b7890" d="M 703.5,447.5 C 703.5,468.833 703.5,490.167 703.5,511.5C 682.167,511.5 660.833,511.5 639.5,511.5C 639.5,490.167 639.5,468.833 639.5,447.5C 660.833,447.5 682.167,447.5 703.5,447.5 Z"/></g>
<g><path style="opacity:1" fill="#68aed4" d="M 895.5,447.5 C 895.5,490.167 895.5,532.833 895.5,575.5C 852.833,575.5 810.167,575.5 767.5,575.5C 767.5,554.167 767.5,532.833 767.5,511.5C 788.833,511.5 810.167,511.5 831.5,511.5C 831.5,490.167 831.5,468.833 831.5,447.5C 852.833,447.5 874.167,447.5 895.5,447.5 Z"/></g>
<g><path style="opacity:1" fill="#000000" d="M 511.5,511.5 C 532.833,511.5 554.167,511.5 575.5,511.5C 575.5,532.833 575.5,554.167 575.5,575.5C 575.5,596.833 575.5,618.167 575.5,639.5C 532.833,639.5 490.167,639.5 447.5,639.5C 447.5,618.167 447.5,596.833 447.5,575.5C 447.5,554.167 447.5,532.833 447.5,511.5C 468.833,511.5 490.167,511.5 511.5,511.5 Z"/></g>
<g><path style="opacity:1" fill="#1b7890" d="M 575.5,511.5 C 596.833,511.5 618.167,511.5 639.5,511.5C 639.5,532.833 639.5,554.167 639.5,575.5C 618.167,575.5 596.833,575.5 575.5,575.5C 575.5,554.167 575.5,532.833 575.5,511.5 Z"/></g>
<g><path style="opacity:1" fill="#000000" d="M 127.5,575.5 C 170.167,575.5 212.833,575.5 255.5,575.5C 255.5,618.167 255.5,660.833 255.5,703.5C 234.167,703.5 212.833,703.5 191.5,703.5C 191.5,682.167 191.5,660.833 191.5,639.5C 170.167,639.5 148.833,639.5 127.5,639.5C 127.5,618.167 127.5,596.833 127.5,575.5 Z"/></g>
<g><path style="opacity:1" fill="#000000" d="M 767.5,575.5 C 810.167,575.5 852.833,575.5 895.5,575.5C 895.5,596.833 895.5,618.167 895.5,639.5C 874.167,639.5 852.833,639.5 831.5,639.5C 831.5,660.833 831.5,682.167 831.5,703.5C 810.167,703.5 788.833,703.5 767.5,703.5C 767.5,682.167 767.5,660.833 767.5,639.5C 767.5,618.167 767.5,596.833 767.5,575.5 Z"/></g>
<g><path style="opacity:1" fill="#68aed4" d="M 447.5,639.5 C 447.5,660.833 447.5,682.167 447.5,703.5C 404.833,703.5 362.167,703.5 319.5,703.5C 319.5,682.167 319.5,660.833 319.5,639.5C 362.167,639.5 404.833,639.5 447.5,639.5 Z"/></g>
<g><path style="opacity:1" fill="#0c1b22" d="M 767.5,639.5 C 767.5,660.833 767.5,682.167 767.5,703.5C 788.833,703.5 810.167,703.5 831.5,703.5C 831.5,724.833 831.5,746.167 831.5,767.5C 810.167,767.5 788.833,767.5 767.5,767.5C 746.167,767.5 724.833,767.5 703.5,767.5C 703.5,746.167 703.5,724.833 703.5,703.5C 703.5,682.167 703.5,660.833 703.5,639.5C 724.833,639.5 746.167,639.5 767.5,639.5 Z"/></g>
<g><path style="opacity:1" fill="#000000" d="M 191.5,703.5 C 191.5,746.167 191.5,788.833 191.5,831.5C 170.167,831.5 148.833,831.5 127.5,831.5C 127.5,788.833 127.5,746.167 127.5,703.5C 148.833,703.5 170.167,703.5 191.5,703.5 Z"/></g>
<g><path style="opacity:1" fill="#122832" d="M 191.5,703.5 C 212.833,703.5 234.167,703.5 255.5,703.5C 255.5,724.833 255.5,746.167 255.5,767.5C 255.5,788.833 255.5,810.167 255.5,831.5C 234.167,831.5 212.833,831.5 191.5,831.5C 191.5,788.833 191.5,746.167 191.5,703.5 Z"/></g>
<g><path style="opacity:1" fill="#2f3642" d="M 255.5,703.5 C 276.833,703.5 298.167,703.5 319.5,703.5C 319.5,724.833 319.5,746.167 319.5,767.5C 298.167,767.5 276.833,767.5 255.5,767.5C 255.5,746.167 255.5,724.833 255.5,703.5 Z"/></g>
<g><path style="opacity:1" fill="#8fdafe" d="M 703.5,703.5 C 703.5,724.833 703.5,746.167 703.5,767.5C 724.833,767.5 746.167,767.5 767.5,767.5C 767.5,788.833 767.5,810.167 767.5,831.5C 724.833,831.5 682.167,831.5 639.5,831.5C 618.167,831.5 596.833,831.5 575.5,831.5C 575.5,810.167 575.5,788.833 575.5,767.5C 596.833,767.5 618.167,767.5 639.5,767.5C 639.5,746.167 639.5,724.833 639.5,703.5C 660.833,703.5 682.167,703.5 703.5,703.5 Z"/></g>
<g><path style="opacity:1" fill="#000000" d="M 831.5,703.5 C 852.833,703.5 874.167,703.5 895.5,703.5C 895.5,746.167 895.5,788.833 895.5,831.5C 874.167,831.5 852.833,831.5 831.5,831.5C 831.5,810.167 831.5,788.833 831.5,767.5C 831.5,746.167 831.5,724.833 831.5,703.5 Z"/></g>
<g><path style="opacity:1" fill="#68aed4" d="M 767.5,767.5 C 788.833,767.5 810.167,767.5 831.5,767.5C 831.5,788.833 831.5,810.167 831.5,831.5C 810.167,831.5 788.833,831.5 767.5,831.5C 767.5,810.167 767.5,788.833 767.5,767.5 Z"/></g>
<g><path style="opacity:1" fill="#000000" d="M 191.5,831.5 C 212.833,831.5 234.167,831.5 255.5,831.5C 255.5,852.833 255.5,874.167 255.5,895.5C 234.167,895.5 212.833,895.5 191.5,895.5C 191.5,874.167 191.5,852.833 191.5,831.5 Z"/></g>
<g><path style="opacity:1" fill="#68aed4" d="M 255.5,831.5 C 298.167,831.5 340.833,831.5 383.5,831.5C 383.5,852.833 383.5,874.167 383.5,895.5C 340.833,895.5 298.167,895.5 255.5,895.5C 255.5,874.167 255.5,852.833 255.5,831.5 Z"/></g>
<g><path style="opacity:1" fill="#000000" d="M 383.5,831.5 C 447.5,831.5 511.5,831.5 575.5,831.5C 596.833,831.5 618.167,831.5 639.5,831.5C 639.5,852.833 639.5,874.167 639.5,895.5C 554.167,895.5 468.833,895.5 383.5,895.5C 383.5,874.167 383.5,852.833 383.5,831.5 Z"/></g>
<g><path style="opacity:1" fill="#68aed4" d="M 639.5,831.5 C 682.167,831.5 724.833,831.5 767.5,831.5C 767.5,852.833 767.5,874.167 767.5,895.5C 724.833,895.5 682.167,895.5 639.5,895.5C 639.5,874.167 639.5,852.833 639.5,831.5 Z"/></g>
<g><path style="opacity:1" fill="#000000" d="M 767.5,831.5 C 788.833,831.5 810.167,831.5 831.5,831.5C 831.5,852.833 831.5,874.167 831.5,895.5C 810.167,895.5 788.833,895.5 767.5,895.5C 767.5,874.167 767.5,852.833 767.5,831.5 Z"/></g>
<g><path style="opacity:1" fill="#000000" d="M 255.5,895.5 C 298.167,895.5 340.833,895.5 383.5,895.5C 383.5,916.833 383.5,938.167 383.5,959.5C 340.833,959.5 298.167,959.5 255.5,959.5C 255.5,938.167 255.5,916.833 255.5,895.5 Z"/></g>
<g><path style="opacity:1" fill="#000000" d="M 639.5,895.5 C 682.167,895.5 724.833,895.5 767.5,895.5C 767.5,916.833 767.5,938.167 767.5,959.5C 724.833,959.5 682.167,959.5 639.5,959.5C 639.5,938.167 639.5,916.833 639.5,895.5 Z"/></g>
</svg>
